<?xml version="1.0" standalone="no"?>
<!DOCTYPE svg PUBLIC "-//W3C//DTD SVG 20010904//EN"
 "http://www.w3.org/TR/2001/REC-SVG-20010904/DTD/svg10.dtd">
<svg version="1.0" xmlns="http://www.w3.org/2000/svg"
 width="530.000000pt" height="471.000000pt" viewBox="0 0 530.000000 471.000000"
 preserveAspectRatio="xMidYMid meet">

<g transform="translate(0.000000,471.000000) scale(0.100000,-0.100000)"
fill="#000000" stroke="none">
<path d="M2581 4045 c-18 -8 -56 -36 -85 -62 -29 -27 -153 -140 -275 -253
-123 -113 -279 -254 -346 -315 -67 -60 -200 -182 -296 -271 -96 -89 -284 -261
-418 -384 -158 -145 -248 -234 -257 -256 -30 -72 -12 -130 63 -202 53 -51 78
-62 139 -62 56 0 73 9 151 76 33 30 64 54 67 54 3 0 6 -350 6 -779 0 -554 3
-788 11 -812 7 -19 23 -47 38 -62 52 -57 51 -57 424 -57 369 0 388 2 434 52
48 51 48 50 51 646 l3 562 384 0 c296 0 386 -3 392 -12 4 -7 8 -259 9 -560 l1
-546 24 -49 c13 -26 39 -58 58 -70 34 -23 37 -23 405 -23 365 0 372 1 410 23
22 12 49 38 60 57 21 34 21 48 23 819 2 431 5 786 7 788 3 3 26 -11 52 -31 26
-20 58 -36 71 -36 61 0 177 99 209 178 18 47 15 99 -10 137 -14 21 -271 250
-785 699 -75 65 -219 191 -320 280 -101 88 -261 228 -355 310 -94 82 -185 155
-203 162 -42 18 -99 17 -142 -1z"/>
</g>
</svg>
